# xmcd CD database file
#
# Track frame offsets:
#	182
#	12637
#	24682
#	45212
#	61897
#	73752
#	86722
#	98525
#	113842
#	127982
#	139872
#	153480
#
# Disc length: 2213 seconds
#
# Revision: 5
# Processed by: cddbd v1.5.2PL0 Copyright (c) Steve Scherf et al.
# Submitted via: CDex 1.51
#
DISCID=9a08a30c
DTITLE=Elvis Presley - From Elvis In Memphis
DYEAR=1969
DGENRE=Rock and Roll
TTITLE0=Wearin' That Loved On Look
TTITLE1=Only The Strong Survive
TTITLE2=I'll Hold You In My Heart (Till I Can Hold You In My Arms)
TTITLE3=Long Black Limousine
TTITLE4=It Keeps Right On A-Hurtin'
TTITLE5=I'm Movin' On
TTITLE6=Power Of My Love
TTITLE7=Gentle On My Mind
TTITLE8=After Loving You
TTITLE9=True Love Travels On A Gravel Road
TTITLE10=Any Day Now
TTITLE11=In The Ghetto
EXTD=From Elvis In Memphis YEAR: 1969
EXTT0=
EXTT1=
EXTT2=
EXTT3=
EXTT4=
EXTT5=
EXTT6=
EXTT7=
EXTT8=
EXTT9=
EXTT10=
EXTT11=
PLAYORDER=
